Coordinates
version=1
nRows=18
nColumns=28
inDegrees=yes

Units are S.I. units (second, meters, Newtons, ...)
Angles are in degrees.

endheader
time	pelvis_tilt	pelvis_list	pelvis_rotation	pelvis_tx	pelvis_ty	pelvis_tz	hip_flexion_r	hip_adduction_r	hip_rotation_r	knee_angle_r	ankle_angle_r	subtalar_angle_r	mtp_angle_r	hip_flexion_l	hip_adduction_l	hip_rotation_l	knee_angle_l	socket_flexion	socket_adduction	socket_rotation	socket_tx	socket_ty	socket_tz	foot_flex	lumbar_extension	lumbar_bending	lumbar_rotation
      0.31666667	      2.52286404	     -1.50203181	     -4.46910930	     -0.42012279	      1.03236630	      0.26725608	     13.94861407	      1.35617215	     -2.92030985	    -60.58930745	     11.75098386	    -16.18059815	     -6.82610056	     -6.66109134	      0.78478017	      8.54955644	      3.54647680	      2.16796680	      0.00000000	      0.00000000	      0.00000000	     -0.00887969	      0.00000000	     -0.33615003	    -12.18362669	     -1.89090778	      2.51275521
      0.32083333	      2.54409785	     -1.50538734	     -4.42213384	     -0.41533107	      1.03275423	      0.26718471	     14.49977928	      1.37073149	     -2.96004411	    -60.16612055	     11.82432006	    -16.18921091	     -6.82304337	     -6.97383395	      0.80975494	      8.55659375	      3.51026486	      2.09062807	      0.00000000	      0.00000000	      0.00000000	     -0.00859217	      0.00000000	     -0.29167150	    -12.31369485	     -1.88885308	      2.50534187
      0.32500000	      2.45841595	     -1.92812140	     -4.04025354	     -0.40980668	      1.03313448	      0.26659837	     14.83726260	      1.80391088	     -3.33241577	    -59.28480755	     12.42981308	    -16.06566064	     -6.96491776	     -7.32715035	      0.31102597	      8.89080005	      3.79424428	      2.24730111	      0.00000000	      0.00000000	      0.00000000	     -0.00875014	      0.00000000	     -0.12147302	    -12.22395229	     -1.30316361	      2.20672599
      0.32916667	      2.47902585	     -1.92915925	     -4.00154100	     -0.40498493	      1.03343203	      0.26650598	     15.35587734	      1.79971887	     -3.38447383	    -58.78355610	     12.51007542	    -16.07902128	     -6.97080901	     -7.64129272	      0.33819732	      8.88990653	      3.76472182	      2.18856639	      0.00000000	      0.00000000	      0.00000000	     -0.00856253	      0.00000000	     -0.06008332	    -12.34257643	     -1.30070040	      2.18833837
      0.33333333	      2.49120363	     -2.29504803	     -3.63693778	     -0.39951605	      1.03388870	      0.26600944	     15.58054152	      2.16085759	     -3.75119267	    -57.86066265	     13.06967541	    -16.10810620	     -7.10936694	     -8.09237061	     -0.09575628	      9.17545407	      4.05240420	      2.34144103	      0.00000000	      0.00000000	      0.00000000	     -0.00853617	      0.00000000	      0.19047424	    -12.36400245	     -0.78994931	      1.91430243
      0.33750000	      2.86310824	     -2.61651382	     -3.46973269	     -0.39414891	      1.03477983	      0.26577324	     15.46892750	      2.46301945	     -3.97866374	    -56.96881703	     13.60558205	    -15.93714870	     -9.21732337	     -9.14056971	     -0.46646014	      9.28393448	      4.86588848	      2.74600183	      0.00000000	      0.00000000	      0.00000000	     -0.00824420	      0.00000000	      0.23840768	    -12.83794949	     -0.38072604	      1.64096858
      0.34166667	      2.83434400	     -2.78237906	     -3.24582974	     -0.38902762	      1.03502221	      0.26546476	     15.85417155	      2.61847643	     -4.20779529	    -56.15563720	     13.85578209	    -15.98403076	     -9.34750156	     -9.43388473	     -0.66347953	      9.45375620	      4.90916884	      2.73654173	      0.00000000	      0.00000000	      0.00000000	     -0.00818238	      0.00000000	      0.35867448	    -12.83849863	     -0.14155822	      1.48297014
      0.34583333	      2.82609332	     -2.76406718	     -3.17481351	     -0.38405630	      1.03528594	      0.26543317	     16.27455512	      2.60095862	     -4.27193499	    -55.40371434	     13.97909780	    -16.01763772	     -9.35959291	     -9.72286095	     -0.62689003	      9.43497811	      4.89039193	      2.69279649	      0.00000000	      0.00000000	      0.00000000	     -0.00785736	      0.00000000	      0.45884028	    -12.89020740	     -0.15280237	      1.46180987
      0.35000000	      2.92794647	     -3.13637876	     -2.83426343	     -0.37871359	      1.03564417	      0.26492179	     16.38847581	      2.92199217	     -4.69045950	    -54.37079278	     14.18130841	    -16.15383748	     -9.72423217	    -10.29376333	     -1.08957508	      9.74918340	      5.25097836	      2.85432204	      0.00000000	      0.00000000	      0.00000000	     -0.00795329	      0.00000000	      0.61063984	    -13.03300651	      0.37073629	      1.08184093
      0.35416667	      2.91475597	     -3.10081061	     -2.77297987	     -0.37377115	      1.03583385	      0.26489701	     16.78870545	      2.88141951	     -4.75190673	    -53.54884775	     14.32041909	    -16.19928985	     -9.73872206	    -10.57840551	     -1.03282198	      9.71305667	      5.23981929	      2.81287691	      0.00000000	      0.00000000	      0.00000000	     -0.00762328	      0.00000000	      0.69576548	    -13.08294242	      0.33505993	      1.08017086
      0.35833333	      2.90065082	     -3.10843697	     -2.68627576	     -0.36866302	      1.03599211	      0.26488622	     17.13116190	      2.88412465	     -4.85723389	    -52.64099922	     14.49816740	    -16.27258839	     -9.76598813	    -10.89362205	     -1.04436805	      9.74347655	      5.26252521	      2.76888541	      0.00000000	      0.00000000	      0.00000000	     -0.00731624	      0.00000000	      0.83058348	    -13.07928317	      0.34621624	      1.06852935
      0.36250000	      3.21223527	     -3.56141108	     -2.34496109	     -0.36340793	      1.03660566	      0.26442012	     16.93352024	      3.29812404	     -5.27385160	    -51.42080625	     14.73202640	    -16.61983926	    -10.66565656	    -11.79511675	     -1.61712758	     10.03414573	      5.92500441	      3.09359679	      0.00000000	      0.00000000	      0.00000000	     -0.00732053	      0.00000000	      0.94795837	    -13.48582152	      0.94551736	      0.69484460
      0.36666667	      3.17422975	     -3.52422242	     -2.29752870	     -0.35842911	      1.03665598	      0.26445206	     17.30385744	      3.25330165	     -5.36267865	    -50.49229736	     14.85850043	    -16.64971446	    -10.69821867	    -12.06660139	     -1.57099752	     10.02342011	      5.92071027	      3.05245073	      0.00000000	      0.00000000	      0.00000000	     -0.00701683	      0.00000000	      1.07129113	    -13.47804184	      0.91856745	      0.71566980
      0.37083333	      3.12977686	     -3.49381765	     -2.22546037	     -0.35350272	      1.03665227	      0.26444338	     17.66665393	      3.21413820	     -5.46822065	    -49.52583926	     14.99185669	    -16.70071131	    -10.72691832	    -12.32500020	     -1.53525037	     10.01369944	      5.93271259	      3.02812695	      0.00000000	      0.00000000	      0.00000000	     -0.00677763	      0.00000000	      1.17960072	    -13.49176444	      0.89825387	      0.72368981
      0.37500000	      3.08262761	     -3.48075909	     -2.14755123	     -0.34851832	      1.03660698	      0.26441461	     17.99419319	      3.18218923	     -5.58982521	    -48.49931656	     15.12885768	    -16.76877776	    -10.76197030	    -12.59557334	     -1.52604196	     10.03497299	      5.96419354	      3.00222025	      0.00000000	      0.00000000	      0.00000000	     -0.00656328	      0.00000000	      1.30187617	    -13.47503236	      0.88636433	      0.72363493
      0.37916667	      3.05353085	     -3.85863069	     -1.75186609	     -0.34328150	      1.03660549	      0.26395584	     18.10916697	      3.52076513	     -6.03485402	    -47.15709778	     15.24413711	    -17.09365339	    -11.04802421	    -12.99809100	     -2.06423226	     10.48938470	      6.30666231	      3.16322787	      0.00000000	      0.00000000	      0.00000000	     -0.00668066	      0.00000000	      1.50312264	    -13.44782407	      1.39477150	      0.61092720
      0.38333333	      3.02427504	     -3.78523008	     -1.71415549	     -0.33832342	      1.03654963	      0.26395525	     18.40599337	      3.41558060	     -6.16393303	    -46.09758066	     15.31420687	    -17.15425798	    -11.10839108	    -13.24729861	     -1.95804659	     10.38777719	      6.21708902	      3.05465381	      0.00000000	      0.00000000	      0.00000000	     -0.00643370	      0.00000000	      1.56374991	    -13.44754285	      1.33481088	      0.55678433
      0.38750000	      3.06001543	     -4.05395830	     -1.41370876	     -0.33309059	      1.03657603	      0.26361900	     18.44521706	      3.64387435	     -6.53639668	    -44.72198656	     15.26864683	    -17.56937000	    -11.57770260	    -13.79483004	     -2.35971194	     10.70313293	      6.77286459	      3.34809657	      0.00000000	      0.00000000	      0.00000000	     -0.00633624	      0.00000000	      1.70573829	    -13.49318148	      1.73715456	      0.25346706
